name ./resultDataOpenSim/trcMotMarkerGrf/sub10/grf-14-04.mot
datacolumns 19
datarows 30
range 0.98000000 1.09600000
endheader

                time	     ground_force_vx	     ground_force_vy	     ground_force_vz	     ground_force_px	     ground_force_py	     ground_force_pz	   l_ground_force_vx	   l_ground_force_vy	   l_ground_force_vz	   l_ground_force_px	   l_ground_force_py	   l_ground_force_pz	     ground_torque_x	     ground_torque_y	     ground_torque_z	   l_ground_torque_x	   l_ground_torque_y	   l_ground_torque_z	
          0.98000000	          0.00000000	          0.00000000	          0.00000000	          0.00000000	          0.00000000	          0.00000000	         54.95943449	        808.19841782	         27.17532471	          0.03164480	         -0.07500100	         -0.14327680	          0.00000000	          0.00000000	          0.00000000	          0.00000000	         -2.80614864	          0.00000000	
          0.98400000	          0.00000000	          0.00000000	          0.00000000	          0.00000000	          0.00000000	          0.00000000	         58.97762938	        812.16821786	         27.56891706	          0.03183026	         -0.07500100	         -0.14308919	          0.00000000	          0.00000000	          0.00000000	          0.00000000	         -2.78614669	          0.00000000	
          0.98800000	          0.00000000	          0.00000000	          0.00000000	          0.00000000	          0.00000000	          0.00000000	         63.15535776	        815.44189274	         28.02406511	          0.03200087	         -0.07500100	         -0.14293327	          0.00000000	          0.00000000	          0.00000000	          0.00000000	         -2.76459156	          0.00000000	
          0.99200000	          0.00000000	          0.00000000	          0.00000000	          0.00000000	          0.00000000	          0.00000000	         67.60087008	        818.00278245	         28.49657964	          0.03217169	         -0.07500100	         -0.14277690	          0.00000000	          0.00000000	          0.00000000	          0.00000000	         -2.74413389	          0.00000000	
          0.99600000	          0.00000000	          0.00000000	          0.00000000	          0.00000000	          0.00000000	          0.00000000	         72.37710386	        819.82585500	         28.94521778	          0.03235672	         -0.07500100	         -0.14259995	          0.00000000	          0.00000000	          0.00000000	          0.00000000	         -2.72602478	          0.00000000	
          1.00000000	          0.00000000	          0.00000000	          0.00000000	          0.00000000	          0.00000000	          0.00000000	         77.47999156	        820.87298409	         29.32669405	          0.03255939	         -0.07500100	         -0.14239790	          0.00000000	          0.00000000	          0.00000000	          0.00000000	         -2.71041303	          0.00000000	
          1.00400000	          0.00000000	          0.00000000	          0.00000000	          0.00000000	          0.00000000	          0.00000000	         82.87239173	        821.09233114	         29.58159145	          0.03279149	         -0.07500100	         -0.14216361	          0.00000000	          0.00000000	          0.00000000	          0.00000000	         -2.69693168	          0.00000000	
          1.00800000	          0.00000000	          0.00000000	          0.00000000	          0.00000000	          0.00000000	          0.00000000	         88.54558181	        820.40978321	         29.61510446	          0.03306321	         -0.07500100	         -0.14189060	          0.00000000	          0.00000000	          0.00000000	          0.00000000	         -2.68522284	          0.00000000	
          1.01200000	          0.00000000	          0.00000000	          0.00000000	          0.00000000	          0.00000000	          0.00000000	         94.53148968	        818.70061893	         29.30390227	          0.03337651	         -0.07500100	         -0.14158288	          0.00000000	          0.00000000	          0.00000000	          0.00000000	         -2.67516210	          0.00000000	
          1.01600000	          0.00000000	          0.00000000	          0.00000000	          0.00000000	          0.00000000	          0.00000000	        100.85390743	        815.80031712	         28.54692267	          0.03372377	         -0.07500100	         -0.14125509	          0.00000000	          0.00000000	          0.00000000	          0.00000000	         -2.66675435	          0.00000000	
          1.02000000	          0.00000000	          0.00000000	          0.00000000	          0.00000000	          0.00000000	          0.00000000	        107.48567196	        811.57312825	         27.31516773	          0.03408571	         -0.07500047	         -0.14092599	          0.00000000	          0.00000000	          0.00000000	          0.00000000	         -2.65990655	          0.00000000	
          1.02400000	          0.00000000	          0.00000000	          0.00000000	          0.00000000	          0.00000000	          0.00000000	        114.34520596	        805.97121273	         25.65172827	          0.03444119	         -0.07500008	         -0.14061037	          0.00000000	          0.00000000	          0.00000000	          0.00000000	         -2.65434108	          0.00000000	
          1.02800000	          0.00000000	          0.00000000	          0.00000000	          0.00000000	          0.00000000	          0.00000000	        121.30556617	        799.06542314	         23.63680038	          0.03478782	         -0.07500000	         -0.14030586	          0.00000000	          0.00000000	          0.00000000	          0.00000000	         -2.64972613	          0.00000000	
          1.03200000	          0.00000000	          0.00000000	          0.00000000	          0.00000000	          0.00000000	          0.00000000	        128.20293184	        791.04567555	         21.35546898	          0.03512936	         -0.07500000	         -0.13999918	          0.00000000	          0.00000000	          0.00000000	          0.00000000	         -2.64583507	          0.00000000	
          1.03600000	          0.00000000	          0.00000000	          0.00000000	          0.00000000	          0.00000000	          0.00000000	        134.86471733	        782.14557637	         18.88194906	          0.03546796	         -0.07500000	         -0.13967357	          0.00000000	          0.00000000	          0.00000000	          0.00000000	         -2.64244164	          0.00000000	
          1.04000000	          0.00000000	          0.00000000	          0.00000000	          0.00000000	          0.00000000	          0.00000000	        141.16326403	        772.52324886	         16.27677411	          0.03580151	         -0.07499990	         -0.13931702	          0.00000000	          0.00000000	          0.00000000	          0.00000000	         -2.63884400	          0.00000000	
          1.04400000	          0.00000000	          0.00000000	          0.00000000	          0.00000000	          0.00000000	          0.00000000	        147.05556089	        762.20369815	         13.58782909	          0.03612303	         -0.07499937	         -0.13892731	          0.00000000	          0.00000000	          0.00000000	          0.00000000	         -2.63325233	          0.00000000	
          1.04800000	          0.00000000	          0.00000000	          0.00000000	          0.00000000	          0.00000000	          0.00000000	        152.56907440	        751.09956946	         10.85488407	          0.03642811	         -0.07499900	         -0.13850999	          0.00000000	          0.00000000	          0.00000000	          0.00000000	         -2.62246294	          0.00000000	
          1.05200000	          0.00000000	          0.00000000	          0.00000000	          0.00000000	          0.00000000	          0.00000000	        157.74887464	        739.05260057	          8.12062970	          0.03672242	         -0.07499900	         -0.13807330	          0.00000000	          0.00000000	          0.00000000	          0.00000000	         -2.60214410	          0.00000000	
          1.05600000	          0.00000000	          0.00000000	          0.00000000	          0.00000000	          0.00000000	          0.00000000	        162.60859667	        725.88483001	          5.43127840	          0.03702082	         -0.07499900	         -0.13763176	          0.00000000	          0.00000000	          0.00000000	          0.00000000	         -2.56777721	          0.00000000	
          1.06000000	          0.00000000	          0.00000000	          0.00000000	          0.00000000	          0.00000000	          0.00000000	        167.10841584	        711.45405024	          2.81580431	          0.03734451	         -0.07499860	         -0.13720285	          0.00000000	          0.00000000	          0.00000000	          0.00000000	         -2.51596032	          0.00000000	
          1.06400000	          0.00000000	          0.00000000	          0.00000000	          0.00000000	          0.00000000	          0.00000000	        171.16407878	        695.64763707	          0.27007344	          0.03771283	         -0.07499800	         -0.13679215	          0.00000000	          0.00000000	          0.00000000	          0.00000000	         -2.44551654	          0.00000000	
          1.06800000	          0.00000000	          0.00000000	          0.00000000	          0.00000000	          0.00000000	          0.00000000	        174.67484917	        678.29684397	         -2.21985612	          0.03813586	         -0.07499800	         -0.13639247	          0.00000000	          0.00000000	          0.00000000	          0.00000000	         -2.35785503	          0.00000000	
          1.07200000	          0.00000000	          0.00000000	          0.00000000	          0.00000000	          0.00000000	          0.00000000	        177.54101228	        659.11619855	         -4.63051104	          0.03862409	         -0.07499800	         -0.13599988	          0.00000000	          0.00000000	          0.00000000	          0.00000000	         -2.25641524	          0.00000000	
          1.07600000	          0.00000000	          0.00000000	          0.00000000	          0.00000000	          0.00000000	          0.00000000	        179.65226116	        637.76024213	         -6.89081201	          0.03918769	         -0.07499800	         -0.13562429	          0.00000000	          0.00000000	          0.00000000	          0.00000000	         -2.14556822	          0.00000000	
          1.08000000	          0.00000000	          0.00000000	          0.00000000	          0.00000000	          0.00000000	          0.00000000	        180.85953781	        613.95510672	         -8.92293991	          0.03981487	         -0.07499783	         -0.13528535	          0.00000000	          0.00000000	          0.00000000	          0.00000000	         -2.02959447	          0.00000000	
          1.08400000	          0.00000000	          0.00000000	          0.00000000	          0.00000000	          0.00000000	          0.00000000	        180.96175957	        587.57435357	        -10.67983378	          0.04047219	         -0.07499714	         -0.13500149	          0.00000000	          0.00000000	          0.00000000	          0.00000000	         -1.91211836	          0.00000000	
          1.08800000	          0.00000000	          0.00000000	          0.00000000	          0.00000000	          0.00000000	          0.00000000	        179.73402159	        558.58838175	        -12.14618793	          0.04111693	         -0.07499700	         -0.13478166	          0.00000000	          0.00000000	          0.00000000	          0.00000000	         -1.79597541	          0.00000000	
          1.09200000	          0.00000000	          0.00000000	          0.00000000	          0.00000000	          0.00000000	          0.00000000	        176.98617348	        526.98011590	        -13.31855346	          0.04173420	         -0.07499692	         -0.13462159	          0.00000000	          0.00000000	          0.00000000	          0.00000000	         -1.68331233	          0.00000000	
          1.09600000	          0.00000000	          0.00000000	          0.00000000	          0.00000000	          0.00000000	          0.00000000	        172.60098051	        492.75643929	        -14.18837556	          0.04234448	         -0.07499598	         -0.13449396	          0.00000000	          0.00000000	          0.00000000	          0.00000000	         -1.57576704	          0.00000000	
